<svg id="Capa_1" enable-background="new 0 0 512 512" height="512" viewBox="0 0 512 512" width="512" xmlns="http://www.w3.org/2000/svg"><g><path d="m0 151h512v361h-512z" fill="#ede9e8"/><path d="m256 151h256v361h-256z" fill="#dfd7d5"/><path d="m214.003 144.994-93.003-127.006 23.994-17.988 93.003 127.006z" fill="#68544f"/><path d="m274.003 127.006 93.003-127.006 23.994 17.988-93.003 127.006" fill="#53433f"/><g fill="#c4b3af"><path d="m316 241h151v30h-151z"/><path d="m286 301h181v30h-181z"/><path d="m286 361h181v30h-181z"/><path d="m286 421h181v30h-181z"/></g><g><g><path d="m136 211c-32.999 0-60 27.001-60 60s27.001 60 60 60 60-27.001 60-60-27.001-60-60-60z" fill="#ff6c6c"/></g><g><path d="m136 331c-41.4 0-75 33.6-75 75v45h150v-45c0-41.4-33.6-75-75-75z" fill="#ff6c6c"/></g><g fill="#ff193d"><path d="m136 331v-120c32.999 0 60 27.001 60 60s-27.001 60-60 60z"/><path d="m211 406v45h-75v-120c41.4 0 75 33.6 75 75z"/></g></g><path d="m181 121h150v60h-150z" fill="#76e2f8"/><path d="m256 121h75v60h-75z" fill="#00c0f1"/></g></svg>